<svg width="640" height="800" viewBox="0 0 640 800" xmlns="http://www.w3.org/2000/svg" fill="none">
  <defs>
    <linearGradient id="bg" x1="0" y1="0" x2="0" y2="1">
      <stop offset="0%" stop-color="#1f2340"/>
      <stop offset="100%" stop-color="#3b2f73"/>
    </linearGradient>
    <linearGradient id="light" x1="0" y1="0" x2="1" y2="1">
      <stop offset="0%" stop-color="#ffb997" stop-opacity="0.6"/>
      <stop offset="100%" stop-color="#ff7f6b" stop-opacity="0.2"/>
    </linearGradient>
    <clipPath id="avatar-clip">
      <circle cx="320" cy="340" r="220"/>
    </clipPath>
  </defs>
  <rect width="640" height="800" fill="url(#bg)"/>
  <g clip-path="url(#avatar-clip)">
    <rect x="0" y="0" width="640" height="800" fill="url(#light)" opacity="0.6"/>
    <path d="M140 560C160 450 170 260 320 260C470 260 480 450 500 560C360 660 280 660 140 560Z" fill="#1e2240"/>
    <ellipse cx="320" cy="340" rx="180" ry="210" fill="#f1c7a6"/>
    <ellipse cx="240" cy="330" rx="26" ry="18" fill="#fff"/>
    <ellipse cx="240" cy="330" rx="12" ry="12" fill="#2c2f47"/>
    <ellipse cx="400" cy="330" rx="26" ry="18" fill="#fff"/>
    <ellipse cx="400" cy="330" rx="12" ry="12" fill="#2c2f47"/>
    <rect x="205" y="290" width="70" height="8" rx="4" fill="#1f1c2b"/>
    <rect x="365" y="290" width="70" height="8" rx="4" fill="#1f1c2b"/>
    <path d="M320 360C330 380 330 420 320 440C310 420 310 380 320 360Z" fill="#e4ab8f"/>
    <path d="M255 460C280 495 360 495 385 460" stroke="#b74f62" stroke-width="26" stroke-linecap="round"/>
    <ellipse cx="230" cy="390" rx="32" ry="20" fill="#f8a3a3" opacity="0.6"/>
    <ellipse cx="410" cy="390" rx="32" ry="20" fill="#f8a3a3" opacity="0.6"/>
    <path d="M140 260C180 160 260 150 320 170C380 190 470 150 500 270C460 300 180 310 140 260Z" fill="#1b1b29"/>
    <path d="M140 260C200 200 270 220 320 220C370 220 450 200 500 270C480 230 410 200 320 205C230 210 170 230 140 260Z" fill="#12121d"/>
    <path d="M0 600C120 560 520 560 640 600V800H0V600Z" fill="#15192f"/>
  </g>
  <circle cx="320" cy="340" r="224" stroke="#ffffff20" stroke-width="10"/>
  <circle cx="320" cy="340" r="238" stroke="#ffffff10" stroke-width="8"/>
</svg>
